<?xml version="1.0" encoding="UTF-8" standalone="no"?>
<svg width="143px" height="44px" viewBox="0 0 143 44" version="1.1" xmlns="http://www.w3.org/2000/svg" xmlns:xlink="http://www.w3.org/1999/xlink" xmlns:sketch="http://www.bohemiancoding.com/sketch/ns">
    <!-- Generator: Sketch 3.2.2 (9983) - http://www.bohemiancoding.com/sketch -->
    <title>Apple</title>
    <desc>Created with Sketch.</desc>
    <defs></defs>
    <g id="FINAL" stroke="none" stroke-width="1" fill="none" fill-rule="evenodd" sketch:type="MSPage">
        <g id="Home-Concept-5" sketch:type="MSArtboardGroup" transform="translate(-973.000000, -4787.000000)" fill="#FFFFFF">
            <g id="Footer" sketch:type="MSLayerGroup" transform="translate(-2.000000, 4194.000000)">
                <g id="Apple-+-Google" transform="translate(976.000000, 593.500000)" sketch:type="MSShapeGroup">
                    <g id="Apple">
                        <path d="M137.092428,0.4094 L4.24107577,0.4094 C2.01143711,0.4094 0.201535509,2.3084 0.201535509,4.6436 L0.201535509,38.3624 C0.201535509,40.6982 2.01143711,42.5906 4.24107577,42.5906 L137.093572,42.5906 C139.324354,42.5906 141.127965,40.6982 141.127965,38.3624 L141.126822,4.6436 C141.126822,2.3084 139.324354,0.4094 137.092428,0.4094" id="Fill-2" stroke-opacity="0.4" stroke="#FFFFFF" fill-opacity="0.1"></path>
                        <path d="M29.3999616,21.2684 C29.3681209,17.7104 32.3172898,15.9788 32.4518618,15.8984 C30.7817274,13.4666 28.1930192,13.1342 27.282856,13.1072 C25.1086775,12.8792 22.9999827,14.4068 21.892167,14.4068 C20.7621228,14.4068 19.0565432,13.1294 17.2181939,13.1672 C14.8529712,13.2038 12.6397428,14.5712 11.4261919,16.6952 C8.92159117,21.0266 10.7893781,27.3908 13.1894453,30.8918 C14.3897793,32.6072 15.792572,34.5206 17.6285182,34.4528 C19.4248138,34.3802 20.0958714,33.3104 22.2634415,33.3104 C24.4111862,33.3104 25.0413916,34.4528 26.9139846,34.4102 C28.8418484,34.3802 30.0553992,32.6876 31.2136795,30.9578 C32.601453,28.994 33.1583647,27.0572 33.1805931,26.9582 C33.1361363,26.9426 29.43781,25.532 29.3999616,21.2684" id="Fill-3"></path>
                        <path d="M25.8626411,10.8044 C26.8286756,9.5978 27.4901209,7.9562 27.306286,6.2906 C25.9082994,6.3524 24.1594645,7.2566 23.151977,8.4368 C22.2610384,9.4766 21.4656219,11.1812 21.6710845,12.7838 C23.2414914,12.9008 24.8545528,11.9924 25.8626411,10.8044" id="Fill-4"></path>
                        <path d="M55.4174107,34.2068 L52.9074031,34.2068 L51.5322457,29.8916 L46.7525374,29.8916 L45.442263,34.2068 L42.9983397,34.2068 L47.7347927,19.5152 L50.6599309,19.5152 L55.4174107,34.2068 L55.4174107,34.2068 Z M51.1177159,28.0808 L49.8741267,24.2444 C49.7425585,23.8526 49.4950422,22.9298 49.1321785,21.4766 L49.0877217,21.4766 C48.9423359,22.1018 48.7086372,23.0246 48.3896296,24.2444 L47.1670672,28.0808 L51.1177159,28.0808 L51.1177159,28.0808 Z" id="Fill-5"></path>
                        <path d="M67.574547,28.7798 C67.574547,30.581 67.0849213,32.0054 66.1044683,33.0512 C65.2267466,33.9818 64.1357524,34.4462 62.8344894,34.4462 C61.4298944,34.4462 60.4194031,33.9464 59.8060192,32.9438 L59.8060192,38.5022 L57.4492073,38.5022 L57.4492073,27.095 C57.4492073,25.9634 57.4191689,24.803 57.362096,23.6132 L59.4347447,23.6132 L59.5663129,25.292 L59.6101689,25.292 C60.3959731,24.0272 61.5890979,23.3942 63.1895432,23.3942 C64.4409424,23.3942 65.4856775,23.888 66.3213455,24.8762 C67.1558119,25.8662 67.574547,27.167 67.574547,28.7798 L67.574547,28.7798 Z M65.1738791,28.8656 C65.1738791,27.8348 64.941382,26.9846 64.4751862,26.3144 C63.9657351,25.6178 63.2814607,25.2692 62.4235643,25.2692 C61.8420211,25.2692 61.3139463,25.463 60.8417428,25.8464 C60.3683378,26.2328 60.0589424,26.7374 59.9141574,27.362 C59.8414645,27.6536 59.8048177,27.8912 59.8048177,28.0784 L59.8048177,29.846 C59.8048177,30.6158 60.0415202,31.2656 60.5143244,31.7978 C60.9877294,32.3276 61.6023148,32.594 62.3580806,32.594 C63.2460154,32.594 63.9368983,32.2508 64.4307294,31.5692 C64.9263628,30.8858 65.1738791,29.9852 65.1738791,28.8656 L65.1738791,28.8656 Z" id="Fill-6"></path>
                        <path d="M79.7749386,28.7798 C79.7749386,30.581 79.2853129,32.0054 78.3048599,33.0512 C77.4259367,33.9818 76.336144,34.4462 75.0336795,34.4462 C73.6290845,34.4462 72.6185931,33.9464 72.0052092,32.9438 L72.0052092,38.5022 L69.6483973,38.5022 L69.6483973,27.095 C69.6483973,25.9634 69.6183589,24.803 69.561286,23.6132 L71.633334,23.6132 L71.7649021,25.292 L71.8093589,25.292 C72.5939616,24.0272 73.7870864,23.3942 75.3887332,23.3942 C76.6389309,23.3942 77.683666,23.888 78.5211363,24.8762 C79.3550019,25.8662 79.7749386,27.167 79.7749386,28.7798 L79.7749386,28.7798 Z M77.3724683,28.8656 C77.3724683,27.8348 77.1393704,26.9846 76.6731747,26.3144 C76.1637236,25.6178 75.4812514,25.2692 74.6233551,25.2692 C74.0424127,25.2692 73.513737,25.463 73.0397313,25.8464 C72.5663263,26.2328 72.2581324,26.7374 72.1133474,27.362 C72.0412553,27.6536 72.0028061,27.8912 72.0028061,28.0784 L72.0028061,29.846 C72.0028061,30.6158 72.2407102,31.2656 72.7111113,31.7978 C73.1845163,32.327 73.7991017,32.594 74.5572706,32.594 C75.4464069,32.594 76.1366891,32.2508 76.6299194,31.5692 C77.124952,30.8858 77.3724683,29.9852 77.3724683,28.8656 L77.3724683,28.8656 Z" id="Fill-7"></path>
                        <path d="M93.4153704,30.0854 C93.4153704,31.3364 92.9774107,32.3534 92.107499,33.1382 C91.150476,33.995 89.8137678,34.424 88.1003781,34.424 C86.5179559,34.424 85.2485336,34.1198 84.2915106,33.509 L84.8364069,31.547 C85.8697274,32.159 87.0051785,32.4638 88.2409578,32.4638 C89.1294933,32.4638 89.8203762,32.2628 90.3136065,31.8638 C90.8074376,31.4642 91.057357,30.9302 91.057357,30.2636 C91.057357,29.666 90.8506929,29.1662 90.4451747,28.7588 C90.0372534,28.3526 89.3631919,27.974 88.4157812,27.626 C85.8402898,26.6666 84.5510422,25.2632 84.5510422,23.4176 C84.5510422,22.2122 85.0064242,21.2252 85.9153858,20.4536 C86.8237466,19.6826 88.0288868,19.2974 89.5278023,19.2974 C90.8663129,19.2974 91.9819386,19.5308 92.8668695,19.9952 L92.275714,21.914 C91.4424491,21.4634 90.5016468,21.2384 89.4491017,21.2384 C88.6182399,21.2384 87.9658061,21.4424 87.4990096,21.8486 C87.1067083,22.2122 86.9078541,22.6544 86.9078541,23.18 C86.9078541,23.7596 87.1343436,24.2414 87.5855202,24.6188 C87.97662,24.9662 88.6909328,25.3454 89.7230518,25.7516 C90.990071,26.2616 91.9206603,26.8556 92.5166219,27.5378 C93.1167889,28.22 93.4153704,29.0708 93.4153704,30.0854" id="Fill-8"></path>
                        <path d="M101.227154,25.3796 L98.6294338,25.3796 L98.6294338,30.5228 C98.6294338,31.8308 99.0872188,32.4836 100.004591,32.4836 C100.425729,32.4836 100.774775,32.4482 101.051129,32.3744 L101.116612,34.1618 C100.652219,34.3346 100.041238,34.4222 99.2836699,34.4222 C98.3530806,34.4222 97.6255509,34.1384 97.1004798,33.5708 C96.5778119,33.0038 96.3146756,32.0528 96.3146756,30.7148 L96.3146756,25.3748 L94.7670979,25.3748 L94.7670979,23.6084 L96.3146756,23.6084 L96.3146756,21.6692 L98.6294338,20.9714 L98.6294338,23.6084 L101.227154,23.6084 L101.227154,25.3796" id="Fill-9"></path>
                        <path d="M112.924702,28.8224 C112.924702,30.4508 112.457906,31.7882 111.527317,32.8334 C110.553472,33.9098 109.257616,34.4462 107.642752,34.4462 C106.084361,34.4462 104.844977,33.9308 103.920996,32.9006 C102.997015,31.8686 102.535025,30.5678 102.535025,28.9994 C102.535025,27.3578 103.012035,26.0132 103.964251,24.9674 C104.918271,23.921 106.202712,23.3978 107.817576,23.3978 C109.374165,23.3978 110.623762,23.9144 111.570572,24.9458 C112.474727,25.946 112.924702,27.2372 112.924702,28.8224 L112.924702,28.8224 Z M110.48138,28.877 C110.48138,27.9062 110.271712,27.074 109.850574,26.3774 C109.356142,25.5362 108.649038,25.1156 107.732267,25.1156 C106.788461,25.1156 106.064536,25.5362 105.571305,26.3774 C105.148965,27.074 104.939298,27.9206 104.939298,28.9208 C104.939298,29.8922 105.148965,30.7268 105.571305,31.4216 C106.080756,32.2628 106.791464,32.6834 107.712441,32.6834 C108.613593,32.6834 109.319495,32.2538 109.830148,31.4006 C110.263902,30.6872 110.48138,29.8496 110.48138,28.877 L110.48138,28.877 Z" id="Fill-10"></path>
                        <path d="M120.588096,25.6832 C120.354998,25.64 120.105079,25.6178 119.844946,25.6178 C119.016488,25.6178 118.374868,25.9292 117.924292,26.5562 C117.532591,27.1082 117.33614,27.806 117.33614,28.6484 L117.33614,34.2068 L114.979328,34.2068 L114.979328,26.9492 C114.979328,25.7294 114.955898,24.6164 114.910841,23.6138 L116.963664,23.6138 L117.049574,25.6412 L117.115058,25.6412 C117.364977,24.9446 117.756077,24.3824 118.293163,23.9618 C118.818234,23.5832 119.385359,23.3942 119.99694,23.3942 C120.214418,23.3942 120.41147,23.4098 120.585693,23.4374 L120.588096,25.6832" id="Fill-11"></path>
                        <path d="M131.127965,28.4084 C131.127965,28.8302 131.10033,29.186 131.042056,29.4764 L123.97162,29.4764 C123.998054,30.5228 124.341092,31.3244 124.997731,31.8764 C125.593092,32.369 126.363877,32.6162 127.310086,32.6162 C128.356624,32.6162 129.311845,32.4506 130.170942,32.1158 L130.539814,33.7484 C129.536532,34.1858 128.351217,34.4036 126.983869,34.4036 C125.338967,34.4036 124.047917,33.92 123.108317,32.9546 C122.171119,31.9892 121.701319,30.6908 121.701319,29.0642 C121.701319,27.4682 122.138077,26.138 123.012194,25.0772 C123.927764,23.9444 125.164144,23.378 126.720733,23.378 C128.249687,23.378 129.406766,23.9444 130.19257,25.0772 C130.814965,25.9742 131.127965,27.0872 131.127965,28.4084 L131.127965,28.4084 Z M128.880493,27.7982 C128.897315,27.0992 128.742317,26.4974 128.423309,25.9886 C128.015388,25.3328 127.387585,25.0064 126.54591,25.0064 C125.775726,25.0064 125.147923,25.325 124.670313,25.9658 C124.278012,26.4746 124.044313,27.086 123.972821,27.7958 L128.880493,27.7982 L128.880493,27.7982 Z" id="Fill-12"></path>
                        <path d="M44.0857294,6.5078 L46.9051324,6.5078 C47.4758618,6.5078 47.9763013,6.5726 48.4064511,6.7016 C48.836,6.8312 49.208476,7.0034 49.5244798,7.22 C49.8404837,7.4372 50.1030192,7.6862 50.3120864,7.9676 C50.5217543,8.2484 50.6869655,8.537 50.8089213,8.8334 C50.9302764,9.1298 51.0179885,9.4262 51.0714568,9.7226 C51.1243244,10.019 51.1513589,10.2926 51.1513589,10.5434 C51.1513589,11.0606 51.0558369,11.5604 50.8659942,12.0428 C50.6755509,12.5252 50.3937908,12.9548 50.0213148,13.331 C49.648238,13.7072 49.1856468,14.009 48.634142,14.237 C48.0826372,14.465 47.4452226,14.579 46.722499,14.579 L44.0857294,14.579 L44.0857294,6.5078 L44.0857294,6.5078 Z M45.1815298,13.553 L46.5626948,13.553 C47.0264875,13.553 47.4662495,13.4906 47.8807793,13.3652 C48.295309,13.2398 48.6587735,13.0514 48.9711727,12.8006 C49.2829712,12.5498 49.5304875,12.2366 49.7131209,11.8604 C49.8957543,11.4842 49.987071,11.045 49.987071,10.5434 C49.987071,10.2854 49.9450173,9.983 49.8615106,9.6374 C49.7774031,9.2912 49.6200019,8.963 49.3875048,8.651 C49.1556084,8.3396 48.8341977,8.075 48.4232726,7.859 C48.0123474,7.6418 47.4794664,7.5338 46.8252303,7.5338 L45.1815298,7.5338 L45.1815298,13.553 L45.1815298,13.553 Z" id="Fill-50"></path>
                        <path d="M51.9726084,11.8772 C51.9726084,11.4824 52.0471036,11.1134 52.1954933,10.7714 C52.3438829,10.4294 52.5475432,10.1294 52.8064741,9.8708 C53.0648042,9.6128 53.3693935,9.4094 53.7196411,9.2612 C54.0692879,9.113 54.4459693,9.0386 54.8496852,9.0386 C55.2528004,9.0386 55.6294818,9.113 55.9791286,9.2612 C56.3293762,9.4094 56.6339655,9.6128 56.8922956,9.8708 C57.1512265,10.1294 57.3548868,10.4294 57.5032764,10.7714 C57.651666,11.1134 57.7261612,11.4824 57.7261612,11.8772 C57.7261612,12.2726 57.651666,12.6428 57.5032764,12.989 C57.3548868,13.3346 57.1512265,13.6346 56.8922956,13.8896 C56.6339655,14.144 56.3293762,14.345 55.9791286,14.4932 C55.6294818,14.6414 55.2528004,14.7158 54.8496852,14.7158 C54.4459693,14.7158 54.0692879,14.6414 53.7196411,14.4932 C53.3693935,14.345 53.0648042,14.144 52.8064741,13.8896 C52.5475432,13.6346 52.3438829,13.3346 52.1954933,12.989 C52.0471036,12.6428 51.9726084,12.2726 51.9726084,11.8772 L51.9726084,11.8772 Z M53.0690096,11.8772 C53.0690096,12.1508 53.1104626,12.4034 53.1945701,12.6356 C53.2780768,12.8678 53.3958273,13.0652 53.5484223,13.2278 C53.7004165,13.3916 53.8866545,13.5206 54.107737,13.616 C54.3282188,13.7108 54.5751344,13.7582 54.8496852,13.7582 C55.1236353,13.7582 55.3705509,13.7108 55.5910326,13.616 C55.8121152,13.5206 55.9983532,13.3916 56.1509482,13.2278 C56.3023417,13.0652 56.4206929,12.8678 56.5041996,12.6356 C56.5883071,12.4034 56.6297601,12.1508 56.6297601,11.8772 C56.6297601,11.6036 56.5883071,11.351 56.5041996,11.1188 C56.4206929,10.8878 56.3023417,10.6898 56.1509482,10.526 C55.9983532,10.3634 55.8121152,10.2338 55.5910326,10.139 C55.3705509,10.0436 55.1236353,9.9962 54.8496852,9.9962 C54.5751344,9.9962 54.3282188,10.0436 54.107737,10.139 C53.8866545,10.2338 53.7004165,10.3634 53.5484223,10.526 C53.3958273,10.6898 53.2780768,10.8878 53.1945701,11.1188 C53.1104626,11.351 53.0690096,11.6036 53.0690096,11.8772 L53.0690096,11.8772 Z" id="Fill-51"></path>
                        <path d="M58.1370864,9.1754 L59.2899597,9.1754 L60.5053129,13.211 L60.528142,13.211 L61.8239981,9.1754 L62.9197985,9.1754 L64.2895489,13.211 L64.3123781,13.211 L65.4652514,9.1754 L66.5610518,9.1754 L64.81462,14.579 L63.7758925,14.579 L62.3430614,10.5434 L62.3196315,10.5434 L61.0135624,14.579 L59.917762,14.579 L58.1370864,9.1754" id="Fill-52"></path>
                        <path d="M67.2224971,9.1754 L68.24981,9.1754 L68.24981,10.0076 L68.2726392,10.0076 C68.402405,9.7184 68.6264914,9.4856 68.9460998,9.3068 C69.266309,9.128 69.6351804,9.0386 70.0533148,9.0386 C70.3122457,9.0386 70.5615643,9.0782 70.8006699,9.1586 C71.040977,9.2384 71.2500441,9.362 71.4290729,9.5288 C71.607501,9.6956 71.7498829,9.911 71.8568196,10.1726 C71.9637562,10.4354 72.0172246,10.7444 72.0172246,11.102 L72.0172246,14.579 L70.9893109,14.579 L70.9893109,11.387 C70.9893109,11.1362 70.9550672,10.9214 70.8865797,10.7426 C70.8186929,10.5644 70.7267754,10.4198 70.6126296,10.31 C70.4984837,10.1996 70.3675163,10.1198 70.2191267,10.07 C70.0701363,10.0208 69.9169405,9.9962 69.7565355,9.9962 C69.5438637,9.9962 69.3462111,10.0304 69.1635777,10.0988 C68.9803436,10.1678 68.8205393,10.2752 68.6835643,10.4234 C68.5465893,10.5716 68.4402534,10.76 68.3639559,10.988 C68.2882591,11.216 68.24981,11.486 68.24981,11.7974 L68.24981,14.579 L67.2224971,14.579 L67.2224971,9.1754" id="Fill-53"></path>
                        <path d="M73.4212188,5.9606 L74.4485317,5.9606 L74.4485317,14.579 L73.4212188,14.579 L73.4212188,5.9606 Z" id="Fill-54"></path>
                        <path d="M75.5899904,11.8772 C75.5899904,11.4824 75.6638848,11.1134 75.8122745,10.7714 C75.9606641,10.4294 76.1643244,10.1294 76.4232553,9.8708 C76.6815854,9.6128 76.9861747,9.4094 77.3358215,9.2612 C77.6860691,9.113 78.0627505,9.0386 78.4658656,9.0386 C78.8695816,9.0386 79.246263,9.113 79.5965106,9.2612 C79.9461574,9.4094 80.2507466,9.6128 80.5090768,9.8708 C80.7680077,10.1294 80.9716679,10.4294 81.1200576,10.7714 C81.2684472,11.1134 81.3423417,11.4824 81.3423417,11.8772 C81.3423417,12.2726 81.2684472,12.6428 81.1200576,12.989 C80.9716679,13.3346 80.7680077,13.6346 80.5090768,13.8896 C80.2507466,14.144 79.9461574,14.345 79.5965106,14.4932 C79.246263,14.6414 78.8695816,14.7158 78.4658656,14.7158 C78.0627505,14.7158 77.6860691,14.6414 77.3358215,14.4932 C76.9861747,14.345 76.6815854,14.144 76.4232553,13.8896 C76.1643244,13.6346 75.9606641,13.3346 75.8122745,12.989 C75.6638848,12.6428 75.5899904,12.2726 75.5899904,11.8772 L75.5899904,11.8772 Z M76.68519,11.8772 C76.68519,12.1508 76.7272438,12.4034 76.8107505,12.6356 C76.894858,12.8678 77.0126084,13.0652 77.1646027,13.2278 C77.3171977,13.3916 77.5034357,13.5206 77.7245182,13.616 C77.945,13.7108 78.1919155,13.7582 78.4658656,13.7582 C78.7398157,13.7582 78.9873321,13.7108 79.2084146,13.616 C79.4288964,13.5206 79.6151344,13.3916 79.7671286,13.2278 C79.9197236,13.0652 80.0374741,12.8678 80.1215816,12.6356 C80.2050883,12.4034 80.247142,12.1508 80.247142,11.8772 C80.247142,11.6036 80.2050883,11.351 80.1215816,11.1188 C80.0374741,10.8878 79.9197236,10.6898 79.7671286,10.526 C79.6151344,10.3634 79.4288964,10.2338 79.2084146,10.139 C78.9873321,10.0436 78.7398157,9.9962 78.4658656,9.9962 C78.1919155,9.9962 77.945,10.0436 77.7245182,10.139 C77.5034357,10.2338 77.3171977,10.3634 77.1646027,10.526 C77.0126084,10.6898 76.894858,10.8878 76.8107505,11.1188 C76.7272438,11.351 76.68519,11.6036 76.68519,11.8772 L76.68519,11.8772 Z" id="Fill-55"></path>
                        <path d="M82.4267274,9.8366 C82.7156967,9.5702 83.0503244,9.371 83.4312111,9.2384 C83.8114971,9.1052 84.1917831,9.0386 84.5726699,9.0386 C84.967975,9.0386 85.3092111,9.0884 85.593975,9.1868 C85.8793397,9.2858 86.1136392,9.4184 86.2962726,9.5858 C86.478906,9.7532 86.6140787,9.9446 86.70119,10.1618 C86.7889021,10.3778 86.8327582,10.6046 86.8327582,10.8398 L86.8327582,13.5986 C86.8327582,13.7888 86.8363628,13.9634 86.843572,14.123 C86.851382,14.2826 86.8633973,14.435 86.8784165,14.579 L85.9652495,14.579 C85.9418196,14.3054 85.9310058,14.0318 85.9310058,13.7582 L85.9081766,13.7582 C85.6798848,14.108 85.4095393,14.3552 85.0977409,14.4992 C84.7859424,14.6432 84.4242802,14.7158 84.0127543,14.7158 C83.7622342,14.7158 83.5225278,14.6816 83.2942361,14.6132 C83.0653436,14.5448 82.8658887,14.4428 82.6946699,14.3054 C82.5234511,14.1686 82.3882783,13.9994 82.2891516,13.7978 C82.1906257,13.5968 82.1413628,13.3634 82.1413628,13.097 C82.1413628,12.7472 82.2188618,12.455 82.3750614,12.2192 C82.531261,11.984 82.7439328,11.7914 83.0142783,11.6432 C83.2846238,11.495 83.6006276,11.3894 83.9622898,11.324 C84.3233512,11.2598 84.7096449,11.2274 85.1205701,11.2274 L85.8739328,11.2274 L85.8739328,10.9994 C85.8739328,10.8626 85.8468983,10.7258 85.7934299,10.589 C85.7411631,10.4522 85.6606603,10.3286 85.5543244,10.2182 C85.4473877,10.1084 85.3140173,10.0208 85.1548138,9.9566 C84.9950096,9.8918 84.8045662,9.8594 84.5840845,9.8594 C84.3864319,9.8594 84.2134107,9.8786 84.0644203,9.9158 C83.9160307,9.9548 83.780858,10.0016 83.6595029,10.0592 C83.537547,10.1162 83.4270058,10.1828 83.3284798,10.2584 C83.2293532,10.3346 83.1344319,10.4066 83.0431152,10.475 L82.4267274,9.8366 L82.4267274,9.8366 Z M85.3260326,11.9798 C85.0821209,11.9798 84.8334031,11.9936 84.5780768,12.0194 C84.3233512,12.0464 84.0908541,12.0974 83.8823877,12.1736 C83.6727198,12.2498 83.501501,12.356 83.3681305,12.4928 C83.2353608,12.6296 83.1686756,12.8048 83.1686756,13.0172 C83.1686756,13.3292 83.2732092,13.553 83.4828772,13.6898 C83.6913436,13.8266 83.974906,13.895 84.3329635,13.895 C84.6147236,13.895 84.8538292,13.8476 85.0520825,13.7522 C85.2497351,13.6574 85.4095393,13.5344 85.5314952,13.382 C85.6528503,13.2302 85.7411631,13.061 85.7934299,12.8744 C85.8468983,12.689 85.8739328,12.5042 85.8739328,12.3218 L85.8739328,11.9798 L85.3260326,11.9798 L85.3260326,11.9798 Z" id="Fill-56"></path>
                        <path d="M93.5223071,14.579 L92.4949942,14.579 L92.4949942,13.8038 L92.4721651,13.8038 C92.2733109,14.0924 92.0017639,14.3174 91.6557217,14.4764 C91.3090787,14.636 90.9534242,14.7158 90.5881574,14.7158 C90.170023,14.7158 89.7915393,14.6432 89.4527063,14.4992 C89.1138733,14.3552 88.8243033,14.1536 88.5851977,13.895 C88.3448906,13.637 88.1610557,13.3364 88.0312898,12.9944 C87.9021248,12.6524 87.8378426,12.2804 87.8378426,11.8772 C87.8378426,11.4746 87.9021248,11.1002 88.0312898,10.7546 C88.1610557,10.4084 88.3448906,10.1084 88.5851977,9.8534 C88.8243033,9.599 89.1138733,9.3998 89.4527063,9.2552 C89.7915393,9.1112 90.170023,9.0386 90.5881574,9.0386 C90.9762534,9.0386 91.3421209,9.1202 91.6839578,9.284 C92.0263954,9.4472 92.2889309,9.6692 92.4721651,9.9506 L92.4949942,9.9506 L92.4949942,5.9606 L93.5223071,5.9606 L93.5223071,14.579 L93.5223071,14.579 Z M90.7137179,13.7582 C90.9876679,13.7582 91.2351843,13.7108 91.455666,13.616 C91.6761478,13.5206 91.8629866,13.3916 92.0149808,13.2278 C92.1675758,13.0652 92.2853263,12.8678 92.3694338,12.6356 C92.4523397,12.4034 92.4949942,12.1508 92.4949942,11.8772 C92.4949942,11.6036 92.4523397,11.351 92.3694338,11.1188 C92.2853263,10.8878 92.1675758,10.6898 92.0149808,10.526 C91.8629866,10.3634 91.6761478,10.2338 91.455666,10.139 C91.2351843,10.0436 90.9876679,9.9962 90.7137179,9.9962 C90.4397678,9.9962 90.1928522,10.0436 89.9723704,10.139 C89.7506871,10.2338 89.5650499,10.3634 89.4124549,10.526 C89.2604607,10.6898 89.1427102,10.8878 89.0586027,11.1188 C88.9744952,11.351 88.9330422,11.6036 88.9330422,11.8772 C88.9330422,12.1508 88.9744952,12.4034 89.0586027,12.6356 C89.1427102,12.8678 89.2604607,13.0652 89.4124549,13.2278 C89.5650499,13.3916 89.7506871,13.5206 89.9723704,13.616 C90.1928522,13.7108 90.4397678,13.7582 90.7137179,13.7582 L90.7137179,13.7582 Z" id="Fill-57"></path>
                        <path d="M97.5288273,11.8772 C97.5288273,11.4824 97.6027217,11.1134 97.7511113,10.7714 C97.899501,10.4294 98.1031612,10.1294 98.3614914,9.8708 C98.6204223,9.6128 98.9250115,9.4094 99.2746583,9.2612 C99.624906,9.113 100.001587,9.0386 100.404702,9.0386 C100.808418,9.0386 101.1851,9.113 101.534747,9.2612 C101.884994,9.4094 102.188983,9.6128 102.447914,9.8708 C102.706845,10.1294 102.910505,10.4294 103.058894,10.7714 C103.207284,11.1134 103.281179,11.4824 103.281179,11.8772 C103.281179,12.2726 103.207284,12.6428 103.058894,12.989 C102.910505,13.3346 102.706845,13.6346 102.447914,13.8896 C102.188983,14.144 101.884994,14.345 101.534747,14.4932 C101.1851,14.6414 100.808418,14.7158 100.404702,14.7158 C100.001587,14.7158 99.624906,14.6414 99.2746583,14.4932 C98.9250115,14.345 98.6204223,14.144 98.3614914,13.8896 C98.1031612,13.6346 97.899501,13.3346 97.7511113,12.989 C97.6027217,12.6428 97.5288273,12.2726 97.5288273,11.8772 L97.5288273,11.8772 Z M98.6240269,11.8772 C98.6240269,12.1508 98.6654798,12.4034 98.7495873,12.6356 C98.8336948,12.8678 98.9514453,13.0652 99.1034395,13.2278 C99.2560345,13.3916 99.4416718,13.5206 99.6627543,13.616 C99.8838369,13.7108 100.130752,13.7582 100.404702,13.7582 C100.678653,13.7582 100.926169,13.7108 101.146651,13.616 C101.367132,13.5206 101.553971,13.3916 101.705965,13.2278 C101.85856,13.0652 101.976311,12.8678 102.060418,12.6356 C102.143324,12.4034 102.185979,12.1508 102.185979,11.8772 C102.185979,11.6036 102.143324,11.351 102.060418,11.1188 C101.976311,10.8878 101.85856,10.6898 101.705965,10.526 C101.553971,10.3634 101.367132,10.2338 101.146651,10.139 C100.926169,10.0436 100.678653,9.9962 100.404702,9.9962 C100.130752,9.9962 99.8838369,10.0436 99.6627543,10.139 C99.4416718,10.2338 99.2560345,10.3634 99.1034395,10.526 C98.9514453,10.6898 98.8336948,10.8878 98.7495873,11.1188 C98.6654798,11.351 98.6240269,11.6036 98.6240269,11.8772 L98.6240269,11.8772 Z" id="Fill-58"></path>
                        <path d="M104.342134,9.1754 L105.369447,9.1754 L105.369447,10.0076 L105.392276,10.0076 C105.521441,9.7184 105.746129,9.4856 106.066338,9.3068 C106.385946,9.128 106.754818,9.0386 107.172952,9.0386 C107.431883,9.0386 107.681202,9.0782 107.920307,9.1586 C108.160614,9.2384 108.369681,9.362 108.54871,9.5288 C108.727138,9.6956 108.86952,9.911 108.976457,10.1726 C109.083393,10.4354 109.136862,10.7444 109.136862,11.102 L109.136862,14.579 L108.108948,14.579 L108.108948,11.387 C108.108948,11.1362 108.074704,10.9214 108.006217,10.7426 C107.93833,10.5644 107.846413,10.4198 107.732267,10.31 C107.618722,10.1996 107.487154,10.1198 107.338764,10.07 C107.190374,10.0208 107.036578,9.9962 106.876173,9.9962 C106.663501,9.9962 106.465848,10.0304 106.283215,10.0988 C106.099981,10.1678 105.940777,10.2752 105.803202,10.4234 C105.666226,10.5716 105.559891,10.76 105.484194,10.988 C105.407896,11.216 105.369447,11.486 105.369447,11.7974 L105.369447,14.579 L104.342134,14.579 L104.342134,9.1754" id="Fill-59"></path>
                        <path d="M116.305223,10.0646 L114.83214,10.0646 L114.83214,12.5156 C114.83214,12.6674 114.835745,12.8174 114.843555,12.9662 C114.851365,13.1144 114.879601,13.247 114.928864,13.3652 C114.979328,13.4828 115.054424,13.5776 115.157756,13.6496 C115.260488,13.7222 115.410679,13.7582 115.608332,13.7582 C115.730288,13.7582 115.855848,13.7468 115.985013,13.724 C116.114179,13.7012 116.231929,13.6598 116.338866,13.5986 L116.338866,14.5334 C116.217511,14.6018 116.059509,14.6492 115.865461,14.6756 C115.671413,14.7026 115.521221,14.7158 115.414284,14.7158 C115.018979,14.7158 114.712587,14.6606 114.49571,14.5502 C114.278833,14.4404 114.119029,14.2976 114.016298,14.123 C113.913566,13.9484 113.852889,13.7522 113.833664,13.5362 C113.81444,13.319 113.804827,13.1006 113.804827,12.8804 L113.804827,10.0646 L112.618311,10.0646 L112.618311,9.1754 L113.804827,9.1754 L113.804827,7.6592 L114.83214,7.6592 L114.83214,9.1754 L116.305223,9.1754 L116.305223,10.0646" id="Fill-60"></path>
                        <path d="M117.401023,5.9606 L118.428336,5.9606 L118.428336,10.0076 L118.451165,10.0076 C118.58033,9.7184 118.805017,9.4856 119.124626,9.3068 C119.444234,9.128 119.813106,9.0386 120.231841,9.0386 C120.490171,9.0386 120.739489,9.0782 120.979196,9.1586 C121.218902,9.2384 121.42857,9.362 121.607599,9.5288 C121.786027,9.6956 121.928409,9.911 122.035345,10.1726 C122.141681,10.4354 122.19515,10.7444 122.19515,11.102 L122.19515,14.579 L121.167236,14.579 L121.167236,11.387 C121.167236,11.1362 121.133593,10.9214 121.064505,10.7426 C120.996618,10.5644 120.905301,10.4198 120.790555,10.31 C120.67701,10.1996 120.545441,10.1198 120.397052,10.07 C120.248662,10.0208 120.094866,9.9962 119.934461,9.9962 C119.721789,9.9962 119.524136,10.0304 119.341503,10.0988 C119.158869,10.1678 118.999065,10.2752 118.861489,10.4234 C118.725115,10.5716 118.618179,10.76 118.542482,10.988 C118.466184,11.216 118.428336,11.486 118.428336,11.7974 L118.428336,14.579 L117.401023,14.579 L117.401023,5.9606" id="Fill-61"></path>
                        <path d="M124.294833,12.2534 C124.294833,12.4892 124.346499,12.7034 124.44923,12.8972 C124.551962,13.0916 124.687134,13.2566 124.854148,13.3934 C125.021762,13.5302 125.21581,13.637 125.436893,13.7126 C125.657374,13.7888 125.885666,13.8266 126.121167,13.8266 C126.441376,13.8266 126.718931,13.7522 126.954432,13.6046 C127.190534,13.4564 127.407411,13.2608 127.605063,13.0172 L128.381255,13.61 C127.810526,14.3468 127.012106,14.7158 125.984793,14.7158 C125.558248,14.7158 125.171954,14.6432 124.825912,14.4992 C124.479269,14.3552 124.186695,14.1554 123.946988,13.9004 C123.707282,13.646 123.522246,13.346 123.393081,12.9998 C123.263315,12.6542 123.199033,12.2804 123.199033,11.8772 C123.199033,11.4746 123.269322,11.1002 123.410503,10.7546 C123.551083,10.4084 123.745131,10.1084 123.992046,9.8534 C124.239562,9.599 124.53514,9.3998 124.876977,9.2552 C125.219415,9.1112 125.592491,9.0386 125.995607,9.0386 C126.475019,9.0386 126.880537,9.122 127.21156,9.2894 C127.542583,9.4568 127.814731,9.6752 128.027403,9.9446 C128.240676,10.2152 128.394472,10.5188 128.489994,10.8572 C128.584916,11.195 128.632376,11.5394 128.632376,11.8886 L128.632376,12.2534 L124.294833,12.2534 L124.294833,12.2534 Z M127.537177,11.4326 C127.528766,11.2046 127.493321,10.9952 127.428438,10.8056 C127.363555,10.616 127.266831,10.4504 127.137666,10.31 C127.0079,10.169 126.845693,10.0592 126.652246,9.9794 C126.458198,9.899 126.231708,9.8594 125.972777,9.8594 C125.721656,9.8594 125.491562,9.9068 125.282495,10.0016 C125.072827,10.097 124.895601,10.22 124.751417,10.3724 C124.607232,10.5242 124.494288,10.6934 124.414386,10.88 C124.335084,11.0666 124.294833,11.2502 124.294833,11.4326 L127.537177,11.4326 L127.537177,11.4326 Z" id="Fill-62"></path>
                    </g>
                </g>
            </g>
        </g>
    </g>
</svg>