<?xml version="1.0" encoding="UTF-8" standalone="no"?>
<svg width="143px" height="44px" viewBox="0 0 143 44" version="1.1" xmlns="http://www.w3.org/2000/svg" xmlns:xlink="http://www.w3.org/1999/xlink" xmlns:sketch="http://www.bohemiancoding.com/sketch/ns">
    <!-- Generator: Sketch 3.2.2 (9983) - http://www.bohemiancoding.com/sketch -->
    <title>Google</title>
    <desc>Created with Sketch.</desc>
    <defs>
        <linearGradient x1="131.694739%" y1="35.4781999%" x2="45.1178397%" y2="76.9448961%" id="linearGradient-1">
            <stop stop-color="#FFFFFF" stop-opacity="0" offset="0%"></stop>
            <stop stop-color="#FFFFFF" stop-opacity="0.179904587" offset="17.9904587%"></stop>
            <stop stop-color="#FFFFFF" offset="100%"></stop>
        </linearGradient>
        <linearGradient x1="0%" y1="50%" x2="117.340736%" y2="50%" id="linearGradient-2">
            <stop stop-color="#FFFFFF" offset="0%"></stop>
            <stop stop-color="#FFFFFF" stop-opacity="0.483893795" offset="100%"></stop>
        </linearGradient>
        <linearGradient x1="7.50072448%" y1="0%" x2="69.6146364%" y2="133.76517%" id="linearGradient-3">
            <stop stop-color="#FFFFFF" offset="0%"></stop>
            <stop stop-color="#FFFFFF" stop-opacity="0" offset="100%"></stop>
        </linearGradient>
        <linearGradient x1="50%" y1="0%" x2="11.4243861%" y2="117.145505%" id="linearGradient-4">
            <stop stop-color="#FFFFFF" offset="0%"></stop>
            <stop stop-color="#FFFFFF" stop-opacity="0" offset="100%"></stop>
        </linearGradient>
    </defs>
    <g id="FINAL" stroke="none" stroke-width="1" fill="none" fill-rule="evenodd" sketch:type="MSPage">
        <g id="Home-Concept-5" sketch:type="MSArtboardGroup" transform="translate(-1135.000000, -4787.000000)">
            <g id="Footer" sketch:type="MSLayerGroup" transform="translate(-2.000000, 4194.000000)">
                <g id="Apple-+-Google" transform="translate(976.000000, 593.500000)" sketch:type="MSShapeGroup">
                    <g id="Google" transform="translate(162.207294, 0.000000)">
                        <path d="M136.911737,0.4094 L4.06038479,0.4094 C1.83074613,0.4094 0.0208445297,2.3084 0.0208445297,4.6436 L0.0208445297,38.3624 C0.0208445297,40.6982 1.83074613,42.5906 4.06038479,42.5906 L136.912881,42.5906 C139.143663,42.5906 140.947274,40.6982 140.947274,38.3624 L140.946131,4.6436 C140.946131,2.3084 139.143663,0.4094 136.911737,0.4094" id="Fill-2" stroke-opacity="0.4" stroke="#FFFFFF" fill-opacity="0.1" fill="#FFFFFF"></path>
                        <path d="M97.1215067,31.277 L96.2161497,32.1302 C96.0076833,32.2448 95.7998177,32.3786 95.591952,32.4728 C94.9629482,32.7578 94.3237313,32.8298 93.755405,32.8298 C93.1504319,32.8298 92.2030211,32.7908 91.2363858,32.0924 C89.8924683,31.1468 89.3055182,29.5232 89.3055182,28.1072 C89.3055182,25.1762 91.6941708,23.7392 93.6424607,23.7392 C94.3237313,23.7392 95.0236257,23.909 95.591952,24.2684 C96.5375605,24.893 96.7820729,25.7048 96.9178464,26.1392 L92.4679597,27.935 L91.0110979,28.0478 C91.4827006,30.4508 93.1107812,31.8482 94.9094798,31.8482 C95.8076276,31.8482 96.4750806,31.556 97.0866622,31.2536 C97.0866622,31.2536 97.2092188,31.1894 97.1215067,31.277 L97.1215067,31.277 Z M94.4372764,26.4974 C94.7989386,26.366 94.9869789,26.2526 94.9869789,25.9892 C94.9869789,25.235 94.1308848,24.3626 93.1107812,24.3626 C92.3544146,24.3626 90.9348004,24.9506 90.9348004,26.993 C90.9348004,27.3116 90.9726488,27.6512 90.9918733,27.9908 L94.4372764,26.4974 L94.4372764,26.4974 Z" id="Fill-15" fill="#FFFFFF"></path>
                        <path d="M87.818618,31.1306 C87.818618,31.8656 87.9501862,31.9796 88.57138,32.0372 C88.8957946,32.0756 89.2190077,32.0924 89.5386161,32.1302 L88.8387217,32.5466 L85.5032591,32.5466 C85.940618,31.9796 86.015714,31.9232 86.015714,31.5452 L86.015714,31.1234 L86.0085048,19.8848 L84.536023,19.8848 L85.9532342,19.2026 L88.6602937,19.2026 C88.0739443,19.5416 87.8985202,19.7486 87.8228234,20.4098 L87.818618,31.1306" id="Fill-16" fill="#FFFFFF"></path>
                        <path d="M82.6454069,24.6668 C83.079762,25.0232 83.9869213,25.7804 83.9869213,27.2168 C83.9869213,28.6172 83.1969117,29.2766 82.3996929,29.9012 C82.1551804,30.1472 81.869215,30.4142 81.869215,30.8264 C81.869215,31.2446 82.1551804,31.4714 82.3612438,31.6406 L83.0449175,32.168 C83.87638,32.8688 84.6339482,33.5114 84.6339482,34.8158 C84.6339482,36.5948 82.9109463,38.387 79.654785,38.387 C76.9122802,38.387 75.5863858,37.0832 75.5863858,35.684 C75.5863858,35.003 75.9252188,34.0394 77.0450499,33.3788 C78.2183493,32.6624 79.8085816,32.5664 80.6592687,32.5106 C80.3937294,32.168 80.0903417,31.8092 80.0903417,31.223 C80.0903417,30.9026 80.1870653,30.7118 80.2801843,30.4862 C80.0729194,30.506 79.864453,30.5264 79.6746104,30.5264 C77.6674453,30.5264 76.532595,29.0306 76.532595,27.5564 C76.532595,26.687 76.9297025,25.7228 77.7449443,25.0232 C78.8239232,24.1364 80.1107678,23.9828 81.1332745,23.9828 L85.0340595,23.9828 L83.8211094,24.6668 L82.6454069,24.6668 L82.6454069,24.6668 Z M81.3038925,33.0584 C81.1488944,33.038 81.0557754,33.038 80.8689367,33.038 C80.6971171,33.038 79.6746104,33.0752 78.8827985,33.3404 C78.4634626,33.494 77.2523148,33.9458 77.2523148,35.2886 C77.2523148,36.6284 78.5601862,37.5944 80.5829712,37.5944 C82.3996929,37.5944 83.3645259,36.7244 83.3645259,35.5532 C83.3645259,34.5896 82.7403282,34.0808 81.3038925,33.0584 L81.3038925,33.0584 Z M81.8487889,29.4668 C82.2861478,29.0306 82.3239962,28.4276 82.3239962,28.085 C82.3239962,26.726 81.5123589,24.608 79.9389482,24.608 C79.4487217,24.608 78.9164415,24.8546 78.614856,25.235 C78.2946468,25.6286 78.1991248,26.1392 78.1991248,26.6306 C78.1991248,27.8966 78.9380691,29.996 80.5643474,29.996 C81.0383532,29.996 81.5490058,29.7656 81.8487889,29.4668 L81.8487889,29.4668 Z" id="Fill-17" fill="#FFFFFF"></path>
                        <path d="M70.9112111,32.7908 C67.9019655,32.7908 66.2925086,30.4508 66.2925086,28.3322 C66.2925086,25.8572 68.3164952,23.7392 71.1947735,23.7392 C73.976929,23.7392 75.7197562,25.9148 75.7197562,28.199 C75.7197562,30.4298 73.9973551,32.7908 70.9112111,32.7908 L70.9112111,32.7908 Z M73.2776353,31.2614 C73.7354203,30.656 73.8459616,29.9012 73.8459616,29.165 C73.8459616,27.5006 73.0517466,24.3254 70.7051478,24.3254 C70.0803493,24.3254 69.4519463,24.569 68.9989674,24.9668 C68.2594223,25.6286 68.1278541,26.4596 68.1278541,27.275 C68.1278541,29.1428 69.0518349,32.2232 71.3455662,32.2232 C72.0863129,32.2232 72.8414779,31.8656 73.2776353,31.2614 L73.2776353,31.2614 Z" id="Fill-18" fill="#FFFFFF"></path>
                        <path d="M60.8381382,32.7908 C57.8288925,32.7908 56.2218388,30.4508 56.2218388,28.3322 C56.2218388,25.8572 58.2458253,23.7392 61.1235029,23.7392 C63.9044568,23.7392 65.644881,25.9148 65.644881,28.199 C65.644881,30.4298 63.9248829,32.7908 60.8381382,32.7908 L60.8381382,32.7908 Z M63.2051631,31.2614 C63.6593436,30.656 63.7728887,29.9012 63.7728887,29.165 C63.7728887,27.5006 62.9762706,24.3254 60.6314741,24.3254 C60.0048733,24.3254 59.3830787,24.569 58.9282975,24.9668 C58.1881516,25.6286 58.0571843,26.4596 58.0571843,27.275 C58.0571843,29.1428 58.9847697,32.2232 61.2748964,32.2232 C62.0138407,32.2232 62.768405,31.8656 63.2051631,31.2614 L63.2051631,31.2614 Z" id="Fill-19" fill="#FFFFFF"></path>
                        <path d="M55.0191017,32.135 L52.4814587,32.7146 C51.4529443,32.8766 50.5301651,33.0194 49.5521152,33.0194 C44.6576603,33.0194 42.7934779,29.4212 42.7934779,26.6054 C42.7934779,23.1662 45.4356545,19.9784 49.9606372,19.9784 C50.9176603,19.9784 51.839238,20.1188 52.6785106,20.3468 C54.0080096,20.7206 54.6298042,21.1802 55.0191017,21.4496 L53.5448177,22.8482 L52.923023,22.9868 L53.3663896,22.2812 C52.7662226,21.6956 51.6626123,20.6156 49.5695374,20.6156 C46.7699597,20.6156 44.6576603,22.7408 44.6576603,25.8434 C44.6576603,29.1764 47.0697428,32.3108 50.9362841,32.3108 C52.0729367,32.3108 52.6580845,32.0822 53.1885624,31.8698 L53.1885624,29.0132 L50.509739,29.1566 L51.9299539,28.3946 L55.6895585,28.3946 L55.2299712,28.8368 C55.1056123,28.9424 55.0893916,28.9778 55.054547,29.1188 C55.0359232,29.2802 55.0191017,29.7938 55.0191017,29.9744 L55.0191017,32.135" id="Fill-20" fill="#FFFFFF"></path>
                        <path d="M102.577679,31.3574 L102.577679,36.1724 L101.620056,36.1724 L101.620056,23.921 L102.577679,23.921 L102.577679,25.316 C103.201276,24.4148 104.340933,23.6996 105.665025,23.6996 C108.038658,23.6996 109.637902,25.4984 109.637902,28.3454 C109.637902,31.1738 108.038658,33.0104 105.665025,33.0104 C104.414827,33.0104 103.295597,32.3672 102.577679,31.3574 L102.577679,31.3574 Z M108.609388,28.3454 C108.609388,26.1998 107.489557,24.563 105.503418,24.563 C104.269441,24.563 103.090735,25.5314 102.577679,26.375 L102.577679,30.2972 C103.090735,31.1426 104.269441,32.1458 105.503418,32.1458 C107.489557,32.1458 108.609388,30.4952 108.609388,28.3454 L108.609388,28.3454 Z" id="Fill-21" fill="#FFFFFF"></path>
                        <path d="M110.945774,20.5382 L111.902797,20.5382 L111.902797,32.7896 L110.945774,32.7896 L110.945774,20.5382 Z" id="Fill-22" fill="#FFFFFF"></path>
                        <path d="M122.645726,35.3804 C122.849987,35.4716 123.199633,35.528 123.421317,35.528 C124.007065,35.528 124.414386,35.2886 124.780854,34.4432 L125.478946,32.8634 L121.707326,23.921 L122.775491,23.921 L126.011226,31.6706 L129.215121,23.921 L130.297704,23.921 L125.697626,34.7402 C125.220616,35.855 124.469656,36.3908 123.437537,36.3908 C123.128142,36.3908 122.720221,36.3356 122.481115,36.2624 L122.645726,35.3804" id="Fill-23" fill="#FFFFFF"></path>
                        <path d="M119.849152,32.7632 C119.784869,32.4554 119.736808,32.1848 119.701964,31.958 C119.671925,31.7324 119.655704,31.5014 119.655704,31.2668 C119.327084,31.748 118.86209,32.1488 118.268532,32.4644 C117.673772,32.7818 117.10905,32.9372 116.33406,32.9372 C115.401668,32.9372 114.677743,32.7086 114.161083,32.2436 C113.645624,31.7786 113.386693,31.1498 113.386693,30.3536 C113.386693,29.5592 113.762173,28.9136 114.510129,28.4198 C115.258685,27.9242 116.225921,27.6782 117.422651,27.6782 L119.655704,27.6782 L119.655704,26.576 C119.655704,25.9412 119.438827,25.4426 119.006875,25.0802 C118.57252,24.7184 117.963342,24.5348 117.173332,24.5348 C116.451209,24.5348 115.866061,24.7022 115.420292,25.0286 C114.978127,25.361 114.755843,25.7732 114.755843,26.27 L113.77599,26.27 L113.755564,26.2226 C113.720119,25.553 114.027111,24.965 114.679545,24.458 C115.328374,23.951 116.179662,23.696 117.2268,23.696 C118.270334,23.696 119.115013,23.9468 119.752428,24.4472 C120.38804,24.9434 120.707649,25.6598 120.707649,26.5964 L120.707649,30.9716 C120.707649,31.2854 120.722067,31.589 120.761718,31.8848 C120.801969,32.1812 120.866251,32.477 120.952161,32.7632 L119.849152,32.7632 L119.849152,32.7632 Z M116.451209,32.0666 C117.264649,32.0666 117.849196,31.8848 118.44696,31.526 C119.039917,31.169 119.443633,30.7034 119.655704,30.14 L119.655704,28.4372 L117.412438,28.4372 C116.555142,28.4372 115.845635,28.6262 115.287522,29.0084 C114.728207,29.3894 114.444645,29.8508 114.444645,30.3866 C114.444645,30.8918 114.624274,31.2968 114.981131,31.6034 C115.339188,31.913 115.828213,32.0666 116.451209,32.0666 L116.451209,32.0666 Z" id="Fill-24" fill="#FFFFFF"></path>
                        <path d="M11.6196392,8.834 C11.5054933,8.834 11.3979559,8.8496 11.2976276,8.8808 L23.6289866,21.1952 L27.4907217,17.3366 L12.4366833,9.0698 C12.1447102,8.9096 11.8677562,8.834 11.6196392,8.834" id="Fill-25" fill="url(#linearGradient-1)"></path>
                        <path d="M27.4919232,17.3366 L23.6289866,21.1952 L27.5111478,25.0724 L32.6501152,22.2506 C33.6924472,21.6758 33.6924472,20.7416 32.6501152,20.1692 L27.4919232,17.3366" id="Fill-26" fill="url(#linearGradient-2)"></path>
                        <path d="M11.2970269,8.8808 C10.8392418,9.0242 10.5424626,9.4874 10.5424626,10.1876 L10.5454664,32.2322 C10.5454664,32.924 10.8326334,33.3806 11.2778023,33.5324 L23.6289866,21.197 L11.2970269,8.8808" id="Fill-27" fill="url(#linearGradient-3)"></path>
                        <path d="M23.6289866,21.197 L23.6289866,21.197 L11.2778023,33.5324 C11.3835374,33.5684 11.4982841,33.587 11.6202399,33.587 C11.8677562,33.587 12.1447102,33.5108 12.4366833,33.3506 L27.5093455,25.0724 L23.6289866,21.197" id="Fill-28" fill="url(#linearGradient-4)"></path>
                        <path d="M43.6663935,6.5078 L46.4857965,6.5078 C47.0565259,6.5078 47.5569655,6.5726 47.9871152,6.7016 C48.4166641,6.8312 48.7897409,7.0034 49.105144,7.22 C49.4211478,7.4372 49.6836833,7.6862 49.8933512,7.9676 C50.1024184,8.2484 50.2676296,8.537 50.3895854,8.8334 C50.5109405,9.1298 50.5986526,9.4262 50.6521209,9.7226 C50.7055893,10.019 50.732023,10.2926 50.732023,10.5434 C50.732023,11.0606 50.636501,11.5604 50.4466583,12.0428 C50.256215,12.5252 49.9744549,12.9548 49.6019789,13.331 C49.2289021,13.7072 48.7669117,14.009 48.2154069,14.237 C47.6633013,14.465 47.0258868,14.579 46.3031631,14.579 L43.6663935,14.579 L43.6663935,6.5078 L43.6663935,6.5078 Z M44.7621939,13.553 L46.1433589,13.553 C46.6071516,13.553 47.0469136,13.4906 47.4620441,13.3652 C47.8765739,13.2398 48.2400384,13.0514 48.5518369,12.8006 C48.8636353,12.5498 49.1111516,12.2366 49.293785,11.8604 C49.4764184,11.4842 49.5677351,11.045 49.5677351,10.5434 C49.5677351,10.2854 49.5256814,9.983 49.4421747,9.6374 C49.3580672,9.2912 49.200666,8.963 48.9681689,8.651 C48.7362726,8.3396 48.4148618,8.075 48.0039367,7.859 C47.5930115,7.6418 47.0601305,7.5338 46.4058944,7.5338 L44.7621939,7.5338 L44.7621939,13.553 L44.7621939,13.553 Z" id="Fill-63" fill="#FFFFFF"></path>
                        <path d="M51.5538733,11.8772 C51.5538733,11.4824 51.6277678,11.1134 51.7761574,10.7714 C51.924547,10.4294 52.1282073,10.1294 52.3871382,9.8708 C52.6454683,9.6128 52.9500576,9.4094 53.3003052,9.2612 C53.649952,9.113 54.0266334,9.0386 54.4303493,9.0386 C54.8334645,9.0386 55.2101459,9.113 55.5603935,9.2612 C55.9100403,9.4094 56.2146296,9.6128 56.4735605,9.8708 C56.7318906,10.1294 56.9355509,10.4294 57.0839405,10.7714 C57.2323301,11.1134 57.3068253,11.4824 57.3068253,11.8772 C57.3068253,12.2726 57.2323301,12.6428 57.0839405,12.989 C56.9355509,13.3346 56.7318906,13.6346 56.4735605,13.8896 C56.2146296,14.144 55.9100403,14.345 55.5603935,14.4932 C55.2101459,14.6414 54.8334645,14.7158 54.4303493,14.7158 C54.0266334,14.7158 53.649952,14.6414 53.3003052,14.4932 C52.9500576,14.345 52.6454683,14.144 52.3871382,13.8896 C52.1282073,13.6346 51.924547,13.3346 51.7761574,12.989 C51.6277678,12.6428 51.5538733,12.2726 51.5538733,11.8772 L51.5538733,11.8772 Z M52.6496737,11.8772 C52.6496737,12.1508 52.6911267,12.4034 52.7752342,12.6356 C52.8587409,12.8678 52.9764914,13.0652 53.1290864,13.2278 C53.2810806,13.3916 53.4673186,13.5206 53.6884012,13.616 C53.9088829,13.7108 54.1563992,13.7582 54.4303493,13.7582 C54.7042994,13.7582 54.951215,13.7108 55.1722975,13.616 C55.3927793,13.5206 55.5790173,13.3916 55.7316123,13.2278 C55.8836065,13.0652 56.001357,12.8678 56.0854645,12.6356 C56.1689712,12.4034 56.211025,12.1508 56.211025,11.8772 C56.211025,11.6036 56.1689712,11.351 56.0854645,11.1188 C56.001357,10.8878 55.8836065,10.6898 55.7316123,10.526 C55.5790173,10.3634 55.3927793,10.2338 55.1722975,10.139 C54.951215,10.0436 54.7042994,9.9962 54.4303493,9.9962 C54.1563992,9.9962 53.9088829,10.0436 53.6884012,10.139 C53.4673186,10.2338 53.2810806,10.3634 53.1290864,10.526 C52.9764914,10.6898 52.8587409,10.8878 52.7752342,11.1188 C52.6911267,11.351 52.6496737,11.6036 52.6496737,11.8772 L52.6496737,11.8772 Z" id="Fill-64" fill="#FFFFFF"></path>
                        <path d="M57.7177505,9.1754 L58.8706238,9.1754 L60.085977,13.211 L60.1088061,13.211 L61.4046622,9.1754 L62.5004626,9.1754 L63.8702131,13.211 L63.8930422,13.211 L65.0459155,9.1754 L66.1417159,9.1754 L64.3952841,14.579 L63.3565566,14.579 L61.9237255,10.5434 L61.9002956,10.5434 L60.5942265,14.579 L59.4984261,14.579 L57.7177505,9.1754" id="Fill-65" fill="#FFFFFF"></path>
                        <path d="M66.803762,9.1754 L67.8304741,9.1754 L67.8304741,10.0076 L67.853904,10.0076 C67.9830691,9.7184 68.2071555,9.4856 68.5273647,9.3068 C68.8469731,9.128 69.2158445,9.0386 69.6339789,9.0386 C69.8929098,9.0386 70.1422284,9.0782 70.3819347,9.1586 C70.6216411,9.2384 70.831309,9.362 71.0103378,9.5288 C71.1881651,9.6956 71.3311478,9.911 71.4374837,10.1726 C71.5444203,10.4354 71.5978887,10.7444 71.5978887,11.102 L71.5978887,14.579 L70.569975,14.579 L70.569975,11.387 C70.569975,11.1362 70.5357313,10.9214 70.4672438,10.7426 C70.399357,10.5644 70.3080403,10.4198 70.1932937,10.31 C70.0797486,10.1996 69.9481804,10.1198 69.7997908,10.07 C69.6514012,10.0208 69.4976046,9.9962 69.3371996,9.9962 C69.1245278,9.9962 68.9268752,10.0304 68.7442418,10.0988 C68.5610077,10.1678 68.4018042,10.2752 68.2642284,10.4234 C68.1278541,10.5716 68.0209175,10.76 67.94462,10.988 C67.8689232,11.216 67.8304741,11.486 67.8304741,11.7974 L67.8304741,14.579 L66.803762,14.579 L66.803762,9.1754" id="Fill-66" fill="#FFFFFF"></path>
                        <path d="M73.0018829,5.9606 L74.0291958,5.9606 L74.0291958,14.579 L73.0018829,14.579 L73.0018829,5.9606 Z" id="Fill-67" fill="#FFFFFF"></path>
                        <path d="M75.1706545,11.8772 C75.1706545,11.4824 75.2445489,11.1134 75.3929386,10.7714 C75.541929,10.4294 75.7449885,10.1294 76.0039194,9.8708 C76.2628503,9.6128 76.5668388,9.4094 76.9170864,9.2612 C77.2667332,9.113 77.6440154,9.0386 78.0465298,9.0386 C78.4502457,9.0386 78.8269271,9.113 79.1771747,9.2612 C79.5268215,9.4094 79.8314107,9.6128 80.0903417,9.8708 C80.3486718,10.1294 80.5523321,10.4294 80.7007217,10.7714 C80.8491113,11.1134 80.9230058,11.4824 80.9230058,11.8772 C80.9230058,12.2726 80.8491113,12.6428 80.7007217,12.989 C80.5523321,13.3346 80.3486718,13.6346 80.0903417,13.8896 C79.8314107,14.144 79.5268215,14.345 79.1771747,14.4932 C78.8269271,14.6414 78.4502457,14.7158 78.0465298,14.7158 C77.6440154,14.7158 77.2667332,14.6414 76.9170864,14.4932 C76.5668388,14.345 76.2628503,14.144 76.0039194,13.8896 C75.7449885,13.6346 75.541929,13.3346 75.3929386,12.989 C75.2445489,12.6428 75.1706545,12.2726 75.1706545,11.8772 L75.1706545,11.8772 Z M76.2664549,11.8772 C76.2664549,12.1508 76.3079079,12.4034 76.3914146,12.6356 C76.4755221,12.8678 76.5932726,13.0652 76.7452668,13.2278 C76.8978618,13.3916 77.0840998,13.5206 77.3051823,13.616 C77.5256641,13.7108 77.7725797,13.7582 78.0465298,13.7582 C78.3204798,13.7582 78.5685969,13.7108 78.7890787,13.616 C79.0095605,13.5206 79.1957985,13.3916 79.3477927,13.2278 C79.5003877,13.0652 79.618739,12.8678 79.7022457,12.6356 C79.7857524,12.4034 79.8278061,12.1508 79.8278061,11.8772 C79.8278061,11.6036 79.7857524,11.351 79.7022457,11.1188 C79.618739,10.8878 79.5003877,10.6898 79.3477927,10.526 C79.1957985,10.3634 79.0095605,10.2338 78.7890787,10.139 C78.5685969,10.0436 78.3204798,9.9962 78.0465298,9.9962 C77.7725797,9.9962 77.5256641,10.0436 77.3051823,10.139 C77.0840998,10.2338 76.8978618,10.3634 76.7452668,10.526 C76.5932726,10.6898 76.4755221,10.8878 76.3914146,11.1188 C76.3079079,11.351 76.2664549,11.6036 76.2664549,11.8772 L76.2664549,11.8772 Z" id="Fill-68" fill="#FFFFFF"></path>
                        <path d="M82.0073916,9.8366 C82.2969616,9.5702 82.6309885,9.371 83.0118752,9.2384 C83.3921612,9.1052 83.773048,9.0386 84.153334,9.0386 C84.5492399,9.0386 84.8898752,9.0884 85.1752399,9.1868 C85.4600038,9.2858 85.6943033,9.4184 85.8775374,9.5858 C86.0595701,9.7532 86.1947428,9.9446 86.2818541,10.1618 C86.3695662,10.3778 86.4134223,10.6046 86.4134223,10.8398 L86.4134223,13.5986 C86.4134223,13.7888 86.4170269,13.9634 86.4248369,14.123 C86.4320461,14.2826 86.4440614,14.435 86.4590806,14.579 L85.5459136,14.579 C85.5230845,14.3054 85.5116699,14.0318 85.5116699,13.7582 L85.4888407,13.7582 C85.2605489,14.108 84.9902035,14.3552 84.678405,14.4992 C84.3666065,14.6432 84.0049443,14.7158 83.5940192,14.7158 C83.3428983,14.7158 83.1031919,14.6816 82.8749002,14.6132 C82.6466084,14.5448 82.4471536,14.4428 82.275334,14.3054 C82.1041152,14.1686 81.9695432,13.9994 81.8704165,13.7978 C81.7718906,13.5968 81.7226276,13.3634 81.7226276,13.097 C81.7226276,12.7472 81.7995259,12.455 81.9557255,12.2192 C82.1119251,11.984 82.3245969,11.7914 82.5955432,11.6432 C82.8652879,11.495 83.1812917,11.3894 83.5429539,11.324 C83.9040154,11.2598 84.290309,11.2274 84.7012342,11.2274 L85.4545969,11.2274 L85.4545969,10.9994 C85.4545969,10.8626 85.4281631,10.7258 85.3746948,10.589 C85.3218273,10.4522 85.2413244,10.3286 85.1349885,10.2182 C85.0280518,10.1084 84.8952821,10.0208 84.7354779,9.9566 C84.5762745,9.8918 84.3852303,9.8594 84.1647486,9.8594 C83.967096,9.8594 83.7940749,9.8786 83.6456852,9.9158 C83.4972956,9.9548 83.3615221,10.0016 83.240167,10.0592 C83.1188119,10.1162 83.0076699,10.1828 82.909144,10.2584 C82.8100173,10.3346 82.715096,10.4066 82.62438,10.475 L82.0073916,9.8366 L82.0073916,9.8366 Z M84.9066967,11.9798 C84.662785,11.9798 84.4140672,11.9936 84.1587409,12.0194 C83.9040154,12.0464 83.672119,12.0974 83.4630518,12.1736 C83.2533839,12.2498 83.0821651,12.356 82.9493954,12.4928 C82.816025,12.6296 82.7499405,12.8048 82.7499405,13.0172 C82.7499405,13.3292 82.8538733,13.553 83.0635413,13.6898 C83.2726084,13.8266 83.5555701,13.895 83.9136276,13.895 C84.1953877,13.895 84.4344933,13.8476 84.6327466,13.7522 C84.8303992,13.6574 84.9902035,13.5344 85.1121593,13.382 C85.2335144,13.2302 85.3218273,13.061 85.3746948,12.8744 C85.4281631,12.689 85.4545969,12.5042 85.4545969,12.3218 L85.4545969,11.9798 L84.9066967,11.9798 L84.9066967,11.9798 Z" id="Fill-69" fill="#FFFFFF"></path>
                        <path d="M93.1029712,14.579 L92.0756583,14.579 L92.0756583,13.8038 L92.0528292,13.8038 C91.8545758,14.0924 91.5830288,14.3174 91.2369866,14.4764 C90.8897428,14.636 90.5346891,14.7158 90.1688215,14.7158 C89.7506871,14.7158 89.3722035,14.6432 89.0333704,14.4992 C88.6945374,14.3552 88.4055681,14.1536 88.1658618,13.895 C87.9261555,13.637 87.7417198,13.3364 87.6119539,12.9944 C87.4827889,12.6524 87.4185067,12.2804 87.4185067,11.8772 C87.4185067,11.4746 87.4827889,11.1002 87.6119539,10.7546 C87.7417198,10.4084 87.9261555,10.1084 88.1658618,9.8534 C88.4055681,9.599 88.6945374,9.3998 89.0333704,9.2552 C89.3722035,9.1112 89.7506871,9.0386 90.1688215,9.0386 C90.5575182,9.0386 90.922785,9.1202 91.2646219,9.284 C91.6076603,9.4472 91.869595,9.6692 92.0528292,9.9506 L92.0756583,9.9506 L92.0756583,5.9606 L93.1029712,5.9606 L93.1029712,14.579 L93.1029712,14.579 Z M90.294382,13.7582 C90.5683321,13.7582 90.8158484,13.7108 91.0363301,13.616 C91.2574127,13.5206 91.4436507,13.3916 91.5956449,13.2278 C91.7482399,13.0652 91.8659904,12.8678 91.9500979,12.6356 C92.0336046,12.4034 92.0756583,12.1508 92.0756583,11.8772 C92.0756583,11.6036 92.0336046,11.351 91.9500979,11.1188 C91.8659904,10.8878 91.7482399,10.6898 91.5956449,10.526 C91.4436507,10.3634 91.2574127,10.2338 91.0363301,10.139 C90.8158484,10.0436 90.5683321,9.9962 90.294382,9.9962 C90.0204319,9.9962 89.7735163,10.0436 89.5530345,10.139 C89.331952,10.2338 89.145714,10.3634 88.993119,10.526 C88.8411248,10.6898 88.7233743,10.8878 88.6392668,11.1188 C88.5557601,11.351 88.5137063,11.6036 88.5137063,11.8772 C88.5137063,12.1508 88.5557601,12.4034 88.6392668,12.6356 C88.7233743,12.8678 88.8411248,13.0652 88.993119,13.2278 C89.145714,13.3916 89.331952,13.5206 89.5530345,13.616 C89.7735163,13.7108 90.0204319,13.7582 90.294382,13.7582 L90.294382,13.7582 Z" id="Fill-70" fill="#FFFFFF"></path>
                        <path d="M97.1094914,11.8772 C97.1094914,11.4824 97.1833858,11.1134 97.3317754,10.7714 C97.4801651,10.4294 97.6838253,10.1294 97.9427562,9.8708 C98.2010864,9.6128 98.5056756,9.4094 98.8553225,9.2612 C99.2055701,9.113 99.5822514,9.0386 99.9853666,9.0386 C100.389083,9.0386 100.765764,9.113 101.116012,9.2612 C101.465658,9.4094 101.770248,9.6128 102.028578,9.8708 C102.287509,10.1294 102.491169,10.4294 102.639559,10.7714 C102.787948,11.1134 102.861843,11.4824 102.861843,11.8772 C102.861843,12.2726 102.787948,12.6428 102.639559,12.989 C102.491169,13.3346 102.287509,13.6346 102.028578,13.8896 C101.770248,14.144 101.465658,14.345 101.116012,14.4932 C100.765764,14.6414 100.389083,14.7158 99.9853666,14.7158 C99.5822514,14.7158 99.2055701,14.6414 98.8553225,14.4932 C98.5056756,14.345 98.2010864,14.144 97.9427562,13.8896 C97.6838253,13.6346 97.4801651,13.3346 97.3317754,12.989 C97.1833858,12.6428 97.1094914,12.2726 97.1094914,11.8772 L97.1094914,11.8772 Z M98.204691,11.8772 C98.204691,12.1508 98.246144,12.4034 98.3302514,12.6356 C98.4143589,12.8678 98.5321094,13.0652 98.6841036,13.2278 C98.8366987,13.3916 99.0223359,13.5206 99.2440192,13.616 C99.464501,13.7108 99.7114165,13.7582 99.9853666,13.7582 C100.259317,13.7582 100.506833,13.7108 100.727315,13.616 C100.947797,13.5206 101.134635,13.3916 101.28663,13.2278 C101.439225,13.0652 101.556975,12.8678 101.641083,12.6356 C101.723988,12.4034 101.766643,12.1508 101.766643,11.8772 C101.766643,11.6036 101.723988,11.351 101.641083,11.1188 C101.556975,10.8878 101.439225,10.6898 101.28663,10.526 C101.134635,10.3634 100.947797,10.2338 100.727315,10.139 C100.506833,10.0436 100.259317,9.9962 99.9853666,9.9962 C99.7114165,9.9962 99.464501,10.0436 99.2440192,10.139 C99.0223359,10.2338 98.8366987,10.3634 98.6841036,10.526 C98.5321094,10.6898 98.4143589,10.8878 98.3302514,11.1188 C98.246144,11.351 98.204691,11.6036 98.204691,11.8772 L98.204691,11.8772 Z" id="Fill-71" fill="#FFFFFF"></path>
                        <path d="M103.923399,9.1754 L104.950712,9.1754 L104.950712,10.0076 L104.973541,10.0076 C105.102706,9.7184 105.327393,9.4856 105.647002,9.3068 C105.96661,9.128 106.335482,9.0386 106.754217,9.0386 C107.012547,9.0386 107.261866,9.0782 107.501572,9.1586 C107.741278,9.2384 107.950946,9.362 108.129975,9.5288 C108.307802,9.6956 108.450785,9.911 108.557722,10.1726 C108.664058,10.4354 108.717526,10.7444 108.717526,11.102 L108.717526,14.579 L107.689612,14.579 L107.689612,11.387 C107.689612,11.1362 107.655969,10.9214 107.586881,10.7426 C107.518994,10.5644 107.427678,10.4198 107.312931,10.31 C107.199386,10.1996 107.067818,10.1198 106.919428,10.07 C106.771038,10.0208 106.617242,9.9962 106.456837,9.9962 C106.244165,9.9962 106.046512,10.0304 105.863879,10.0988 C105.680645,10.1678 105.521441,10.2752 105.383866,10.4234 C105.247491,10.5716 105.140555,10.76 105.064858,10.988 C104.98856,11.216 104.950712,11.486 104.950712,11.7974 L104.950712,14.579 L103.923399,14.579 L103.923399,9.1754" id="Fill-72" fill="#FFFFFF"></path>
                    </g>
                </g>
            </g>
        </g>
    </g>
</svg>